<svg xmlns="http://www.w3.org/2000/svg" width="1570.96" height="484" viewBox="0 0 1570.96 484">
  <g id="Group_3" data-name="Group 3" transform="translate(-213 -540)">
    <g id="Group_1" data-name="Group 1" transform="translate(1027 540)">
      <path id="Path_1" data-name="Path 1" d="M875.75,529.2a10.056,10.056,0,0,1,4.9-14.62l-1.421-35.707,15.9,9.6L894.037,520.9A10.11,10.11,0,0,1,875.75,529.2Z" transform="translate(-221.52 -213.32)" fill="#a0616a"/>
      <path id="Path_2" data-name="Path 2" d="M896.967,506.049l-14.132,2.258a4.5,4.5,0,0,1-5.17-3.851l-5.979-45.03-29.545-40.432a13.579,13.579,0,0,1,3.653-19.453h0a13.579,13.579,0,0,1,18.754,4.13L894.72,450.89l6.006,50.181a4.557,4.557,0,0,1,.013.965,4.486,4.486,0,0,1-3.772,4.013Z" transform="translate(-221.52 -213.32)" fill="#6c63ff"/>
      <path id="Path_3" data-name="Path 3" d="M626.725,459.863h-12.26l-5.832-47.288h18.094Z" fill="#a0616a"/>
      <path id="Path_4" data-name="Path 4" d="M605.708,456.36h23.644v14.887H590.821a14.887,14.887,0,0,1,14.887-14.887Z" fill="#2f2e41"/>
      <path id="Path_5" data-name="Path 5" d="M678.45,438.879l-9.16,8.148L635.145,413.36l11.876-9.813Z" fill="#a0616a"/>
      <path id="Path_6" data-name="Path 6" d="M885.779,658.758h23.644v14.887H870.892A14.887,14.887,0,0,1,885.779,658.758Z" transform="translate(-439.24 546.751) rotate(-41.654)" fill="#2f2e41"/>
      <path id="Path_7" data-name="Path 7" d="M725.043,402.777a10.056,10.056,0,0,1,12.324,9.267l34.327,9.93-14.128,12.051-30.432-11.277a10.11,10.11,0,0,1-2.091-19.97Z" transform="translate(-221.52 -213.32)" fill="#a0616a"/>
      <circle id="Ellipse_1" data-name="Ellipse 1" cx="24.561" cy="24.561" r="24.561" transform="translate(585.986 106.067)" fill="#a0616a"/>
      <path id="Path_8" data-name="Path 8" d="M849.75,664.328l-17.064-1.365a4.5,4.5,0,0,1-4.139-4.337l-4.763-143.833a4.489,4.489,0,0,1,3.876-4.605l34.02-4.747a4.5,4.5,0,0,1,5.058,5.214L853.72,586.9a3.511,3.511,0,0,0-.05.635l.939,72.245a4.5,4.5,0,0,1-4.5,4.56C849.987,664.343,849.868,664.338,849.75,664.328Z" transform="translate(-221.52 -213.32)" fill="#2f2e41"/>
      <path id="Path_9" data-name="Path 9" d="M871.6,647.078l-58.619-65.238a4.5,4.5,0,0,1-1.127-3.484l7.4-69.405a4.493,4.493,0,0,1,4.774-4.013l35.976,2.4a4.5,4.5,0,0,1,3.964,5.931l-21.555,63.768a3.487,3.487,0,0,0,.8,3.551l49.793,51.6a4.5,4.5,0,0,1-.949,7l-14.819,8.757A4.51,4.51,0,0,1,871.6,647.078Z" transform="translate(-221.52 -213.32)" fill="#2f2e41"/>
      <path id="Path_10" data-name="Path 10" d="M827.665,383.68s15-13,22-6c0,0,32.5,20.5,18.5,76.5,0,0,12,54,7,56s-55.5,9.5-59.5,3.5S809.665,415.68,827.665,383.68Z" transform="translate(-221.52 -213.32)" fill="#6c63ff"/>
      <path id="Path_11" data-name="Path 11" d="M740.3,430.22l2.322-14.122a4.5,4.5,0,0,1,5.287-3.689l44.613,8.551L840.219,405.7a13.579,13.579,0,0,1,17.3,9.61h0A13.579,13.579,0,0,1,847.68,431.8l-54.332,13.714-49.509-10.153a4.553,4.553,0,0,1-.92-.292A4.486,4.486,0,0,1,740.3,430.22Z" transform="translate(-221.52 -213.32)" fill="#6c63ff"/>
      <path id="Path_12" data-name="Path 12" d="M842.606,363.871c2.245-5.195,4.144-12.113-.161-15.785-2.5-2.13-6.094-2.135-9.365-2.4-9.217-.747-18.706-4.988-23.211-13.064s-1.989-20.084,6.51-23.728c5.729-2.456,12.3-.783,18.294.918l18.006,5.106c5.35,1.517,10.967,3.19,14.819,7.2,6.143,6.4,5.684,17.212.8,24.618s-12.226,15.131-20.638,17.943Z" transform="translate(-221.52 -213.32)" fill="#2f2e41"/>
      <path id="Path_13" data-name="Path 13" d="M977.48,686.68h-248a1,1,0,0,1,0-2h248a1,1,0,0,1,0,2Z" transform="translate(-221.52 -213.32)" fill="#3f3d56"/>
      <path id="Path_14" data-name="Path 14" d="M715.52,213.32h-487a7.008,7.008,0,0,0-7,7v360a7.008,7.008,0,0,0,7,7h487a7.008,7.008,0,0,0,7-7v-360A7.008,7.008,0,0,0,715.52,213.32Zm5,367a5,5,0,0,1-5,5h-487a5,5,0,0,1-5-5v-360a5,5,0,0,1,5-5h487a5,5,0,0,1,5,5Z" transform="translate(-221.52 -213.32)" fill="#3f3d56"/>
      <rect id="Rectangle_1" data-name="Rectangle 1" width="499" height="2" transform="translate(1 28.04)" fill="#3f3d56"/>
      <circle id="Ellipse_2" data-name="Ellipse 2" cx="6" cy="6" r="6" transform="translate(12 9)" fill="#3f3d56"/>
      <circle id="Ellipse_3" data-name="Ellipse 3" cx="6" cy="6" r="6" transform="translate(29.25 9)" fill="#3f3d56"/>
      <circle id="Ellipse_4" data-name="Ellipse 4" cx="6" cy="6" r="6" transform="translate(46.5 9)" fill="#3f3d56"/>
      <path id="Path_15" data-name="Path 15" d="M523.343,524.625a1,1,0,0,1-1-1v-41a1,1,0,0,1,2,0v41A1,1,0,0,1,523.343,524.625Z" transform="translate(-221.52 -213.32)" fill="#3f3d56"/>
      <path id="Path_16" data-name="Path 16" d="M521.972,466.625a.994.994,0,0,1-.5-.136l-56.815-33.1a1,1,0,0,1,1.007-1.729l56.815,33.1a1,1,0,0,1-.5,1.864Z" transform="translate(-221.52 -213.32)" fill="#3f3d56"/>
      <path id="Path_17" data-name="Path 17" d="M408.344,466.625a1,1,0,0,1-.5-1.864l56.815-33.1a1,1,0,0,1,1.007,1.729l-56.815,33.1A1,1,0,0,1,408.344,466.625Z" transform="translate(-221.52 -213.32)" fill="#3f3d56"/>
      <path id="Path_18" data-name="Path 18" d="M580.972,516.625a.994.994,0,0,1-.5-.136l-56.815-33.1a1,1,0,1,1,1.007-1.728l56.815,33.1a1,1,0,0,1-.5,1.864Z" transform="translate(-221.52 -213.32)" fill="#3f3d56"/>
      <path id="Path_19" data-name="Path 19" d="M467.344,516.625a1,1,0,0,1-.5-1.864l56.815-33.1a1,1,0,0,1,1.007,1.729l-56.815,33.1a1,1,0,0,1-.5.136Z" transform="translate(-221.52 -213.32)" fill="#3f3d56"/>
      <path id="Path_20" data-name="Path 20" d="M465.343,415.625a1,1,0,0,1-1-1l-.092-36.387a1,1,0,0,1,1-1h0a1,1,0,0,1,1,1l.092,36.387a1,1,0,0,1-1,1Z" transform="translate(-221.52 -213.32)" fill="#3f3d56"/>
      <path id="Path_21" data-name="Path 21" d="M478.276,434.541H452.224a4.505,4.505,0,0,1-4.5-4.5V416.659a4.505,4.505,0,0,1,4.5-4.5h26.052a4.505,4.505,0,0,1,4.5,4.5v13.381A4.505,4.505,0,0,1,478.276,434.541Z" transform="translate(-221.52 -213.32)" fill="#ccc"/>
      <path id="Path_22" data-name="Path 22" d="M435.158,366.521H379.724a1,1,0,0,1,0-2h55.433a1,1,0,0,1,0,2Z" transform="translate(-221.52 -213.32)" fill="#3f3d56"/>
      <path id="Path_23" data-name="Path 23" d="M465.25,352.238a1,1,0,0,1-1-1V316.625a1,1,0,0,1,2,0v34.613a1,1,0,0,1-1,1Z" transform="translate(-221.52 -213.32)" fill="#3f3d56"/>
      <path id="Path_24" data-name="Path 24" d="M358.157,366.521a1,1,0,0,1-.509-.14l-53.815-31.9a1,1,0,1,1,1.02-1.721l53.815,31.9a1,1,0,0,1-.511,1.86Z" transform="translate(-221.52 -213.32)" fill="#3f3d56"/>
      <path id="Path_25" data-name="Path 25" d="M304.344,398.417a1,1,0,0,1-.511-1.86l53.815-31.9a1,1,0,1,1,1.02,1.721l-53.815,31.9a1,1,0,0,1-.509.14Z" transform="translate(-221.52 -213.32)" fill="#3f3d56"/>
      <path id="Path_26" data-name="Path 26" d="M375.724,382.651H362.343a4.505,4.505,0,0,1-4.5-4.5V352.1a4.5,4.5,0,0,1,4.5-4.5h13.381a4.5,4.5,0,0,1,4.5,4.5v26.052A4.505,4.505,0,0,1,375.724,382.651Z" transform="translate(-221.52 -213.32)" fill="#ccc"/>
      <path id="Path_27" data-name="Path 27" d="M478.276,319.316H452.224a4.505,4.505,0,0,1-4.5-4.5V301.434a4.505,4.505,0,0,1,4.5-4.5h26.052a4.505,4.505,0,0,1,4.5,4.5v13.382a4.505,4.505,0,0,1-4.5,4.5Z" transform="translate(-221.52 -213.32)" fill="#ccc"/>
      <path id="Path_28" data-name="Path 28" d="M300.724,351.651H287.343a4.505,4.505,0,0,1-4.5-4.5V321.1a4.505,4.505,0,0,1,4.5-4.5h13.381a4.505,4.505,0,0,1,4.5,4.5v26.052A4.5,4.5,0,0,1,300.724,351.651Z" transform="translate(-221.52 -213.32)" fill="#ccc"/>
      <path id="Path_29" data-name="Path 29" d="M300.724,414.651H287.343a4.505,4.505,0,0,1-4.5-4.5V384.1a4.505,4.505,0,0,1,4.5-4.5h13.381a4.505,4.505,0,0,1,4.5,4.5v26.052A4.5,4.5,0,0,1,300.724,414.651Z" transform="translate(-221.52 -213.32)" fill="#ccc"/>
      <path id="Path_30" data-name="Path 30" d="M550.776,366.521H495.343a1,1,0,0,1,0-2h55.434a1,1,0,0,1,0,2Z" transform="translate(-221.52 -213.32)" fill="#3f3d56"/>
      <path id="Path_31" data-name="Path 31" d="M572.344,366.521a1,1,0,0,1-.511-1.86l53.815-31.9a1,1,0,1,1,1.02,1.721l-53.815,31.9a1,1,0,0,1-.509.14Z" transform="translate(-221.52 -213.32)" fill="#3f3d56"/>
      <path id="Path_32" data-name="Path 32" d="M626.157,398.417a1,1,0,0,1-.509-.14l-53.815-31.9a1,1,0,0,1,1.02-1.721l53.815,31.9a1,1,0,0,1-.511,1.86Z" transform="translate(-221.52 -213.32)" fill="#3f3d56"/>
      <path id="Path_33" data-name="Path 33" d="M568.158,382.651H554.776a4.505,4.505,0,0,1-4.5-4.5V352.1a4.505,4.505,0,0,1,4.5-4.5h13.381a4.505,4.505,0,0,1,4.5,4.5v26.052a4.505,4.505,0,0,1-4.5,4.5Z" transform="translate(-221.52 -213.32)" fill="#ccc"/>
      <path id="Path_34" data-name="Path 34" d="M643.158,351.651H629.776a4.505,4.505,0,0,1-4.5-4.5V321.1a4.505,4.505,0,0,1,4.5-4.5h13.381a4.505,4.505,0,0,1,4.5,4.5v26.052a4.505,4.505,0,0,1-4.5,4.5Z" transform="translate(-221.52 -213.32)" fill="#ccc"/>
      <path id="Path_35" data-name="Path 35" d="M643.158,414.651H629.776a4.505,4.505,0,0,1-4.5-4.5V384.1a4.505,4.505,0,0,1,4.5-4.5h13.381a4.505,4.505,0,0,1,4.5,4.5v26.052A4.505,4.505,0,0,1,643.158,414.651Z" transform="translate(-221.52 -213.32)" fill="#ccc"/>
      <path id="Path_36" data-name="Path 36" d="M420.276,485.541H394.224a4.5,4.5,0,0,1-4.5-4.5V467.659a4.5,4.5,0,0,1,4.5-4.5h26.052a4.505,4.505,0,0,1,4.5,4.5v13.381a4.505,4.505,0,0,1-4.5,4.5Z" transform="translate(-221.52 -213.32)" fill="#ccc"/>
      <path id="Path_37" data-name="Path 37" d="M536.091,485.541H510.039a4.505,4.505,0,0,1-4.5-4.5V467.659a4.505,4.505,0,0,1,4.5-4.5h26.052a4.5,4.5,0,0,1,4.5,4.5v13.381a4.5,4.5,0,0,1-4.5,4.5Z" transform="translate(-221.52 -213.32)" fill="#ccc"/>
      <path id="Path_38" data-name="Path 38" d="M483.091,534.541H457.039a4.505,4.505,0,0,1-4.5-4.5V516.659a4.505,4.505,0,0,1,4.5-4.5h26.052a4.505,4.505,0,0,1,4.5,4.5v13.381A4.505,4.505,0,0,1,483.091,534.541Z" transform="translate(-221.52 -213.32)" fill="#ccc"/>
      <path id="Path_39" data-name="Path 39" d="M594.091,534.541H568.039a4.505,4.505,0,0,1-4.5-4.5V516.659a4.505,4.505,0,0,1,4.5-4.5h26.052a4.505,4.505,0,0,1,4.5,4.5v13.381a4.505,4.505,0,0,1-4.5,4.5Z" transform="translate(-221.52 -213.32)" fill="#ccc"/>
      <path id="Path_40" data-name="Path 40" d="M536.091,534.541H510.039a4.505,4.505,0,0,1-4.5-4.5V516.659a4.5,4.5,0,0,1,4.5-4.5h26.052a4.505,4.505,0,0,1,4.5,4.5v13.381A4.5,4.5,0,0,1,536.091,534.541Z" transform="translate(-221.52 -213.32)" fill="#ccc"/>
      <path id="Path_41" data-name="Path 41" d="M496.919,382.917H433.581a4.505,4.505,0,0,1-4.5-4.5V352.625a4.505,4.505,0,0,1,4.5-4.5h63.338a4.505,4.505,0,0,1,4.5,4.5v25.792a4.505,4.505,0,0,1-4.5,4.5Z" transform="translate(-221.52 -213.32)" fill="#6c63ff"/>
    </g>
    <g id="Group_2" data-name="Group 2" transform="translate(213 540)">
      <path id="Path_42" data-name="Path 42" d="M976.321,525H681.329a5.743,5.743,0,0,1-5.736-5.736V213.736A5.743,5.743,0,0,1,681.329,208H976.321a5.743,5.743,0,0,1,5.736,5.736V519.264A5.743,5.743,0,0,1,976.321,525ZM681.329,210a3.741,3.741,0,0,0-3.736,3.736V519.264A3.74,3.74,0,0,0,681.329,523H976.321a3.741,3.741,0,0,0,3.736-3.736V213.736A3.741,3.741,0,0,0,976.321,210Z" transform="translate(-217.943 -208)" fill="#3f3d56"/>
      <path id="Path_43" data-name="Path 43" d="M884.428,336.406a63.221,63.221,0,1,1-55.6-33.119c.5,0,1,.007,1.5.019l-.668-27.006c-.277,0-.553-.011-.831-.011a90.184,90.184,0,1,0,77.35,43.772Z" transform="translate(-217.943 -208)" fill="#6c63ff"/>
      <path id="Path_44" data-name="Path 44" d="M884.428,336.406l21.748-16.344A90.156,90.156,0,0,0,829.656,276.3l.668,27.006a63.2,63.2,0,0,1,54.1,33.1Z" transform="translate(-217.943 -208)" fill="#e6e6e6"/>
      <rect id="Rectangle_2" data-name="Rectangle 2" width="1.571" height="45.012" transform="matrix(0.71, -0.704, 0.704, 0.71, 655.688, 237.04)" fill="#3f3d56"/>
      <rect id="Rectangle_3" data-name="Rectangle 3" width="45.012" height="1.571" transform="translate(655.117 79.449) rotate(-60.713)" fill="#3f3d56"/>
      <path id="Path_45" data-name="Path 45" d="M929.569,488.815h-46.75a3.138,3.138,0,0,1-3.135-3.134V479.1a3.138,3.138,0,0,1,3.135-3.134h46.75A3.138,3.138,0,0,1,932.7,479.1v6.584a3.138,3.138,0,0,1-3.135,3.134Z" transform="translate(-217.943 -208)" fill="#6c63ff"/>
      <path id="Path_46" data-name="Path 46" d="M917.718,249.135H870.967A3.138,3.138,0,0,1,867.833,246v-6.585a3.138,3.138,0,0,1,3.134-3.134h46.751a3.138,3.138,0,0,1,3.134,3.134V246A3.138,3.138,0,0,1,917.718,249.135Z" transform="translate(-217.943 -208)" fill="#e6e6e6"/>
      <path id="Path_47" data-name="Path 47" d="M628.437,353.873H295.068a5.471,5.471,0,0,1-5.465-5.465V214.465A5.471,5.471,0,0,1,295.068,209H628.437a5.471,5.471,0,0,1,5.465,5.465V348.408a5.471,5.471,0,0,1-5.465,5.465ZM295.068,211a3.469,3.469,0,0,0-3.465,3.465V348.408a3.469,3.469,0,0,0,3.465,3.465H628.437a3.469,3.469,0,0,0,3.465-3.465V214.465A3.468,3.468,0,0,0,628.437,211Z" transform="translate(-217.943 -208)" fill="#3f3d56"/>
      <path id="Path_48" data-name="Path 48" d="M425.02,320.631h-32.3a3.485,3.485,0,0,1-3.432-2.921,135.678,135.678,0,0,1,0-41.294,3.485,3.485,0,0,1,3.432-2.921h32.3a3.441,3.441,0,0,1,2.718,1.317,3.5,3.5,0,0,1,.654,3,82.894,82.894,0,0,0,0,38.5,3.5,3.5,0,0,1-.654,3A3.441,3.441,0,0,1,425.02,320.631Z" transform="translate(-217.943 -208)" fill="#e6e6e6"/>
      <path id="Path_49" data-name="Path 49" d="M533.165,320.631h-32.3a3.485,3.485,0,0,1-3.432-2.921,135.678,135.678,0,0,1,0-41.294,3.485,3.485,0,0,1,3.432-2.921h32.3a3.44,3.44,0,0,1,2.718,1.317,3.5,3.5,0,0,1,.654,3,82.9,82.9,0,0,0,0,38.5,3.5,3.5,0,0,1-.654,3,3.44,3.44,0,0,1-2.718,1.317Z" transform="translate(-217.943 -208)" fill="#e6e6e6"/>
      <path id="Path_50" data-name="Path 50" d="M370.081,289.377h-32.3a3.485,3.485,0,0,1-3.432-2.921,135.676,135.676,0,0,1,0-41.294,3.485,3.485,0,0,1,3.432-2.921h32.3a3.441,3.441,0,0,1,2.718,1.317,3.5,3.5,0,0,1,.654,3,82.887,82.887,0,0,0,0,38.5,3.5,3.5,0,0,1-.654,3,3.441,3.441,0,0,1-2.718,1.317Z" transform="translate(-217.943 -208)" fill="#6c63ff"/>
      <path id="Path_51" data-name="Path 51" d="M479.314,289.377h-32.3a3.44,3.44,0,0,1-2.718-1.317,3.5,3.5,0,0,1-.654-3,82.894,82.894,0,0,0,0-38.5,3.5,3.5,0,0,1,.654-3,3.44,3.44,0,0,1,2.718-1.317h32.3a3.485,3.485,0,0,1,3.432,2.921,135.677,135.677,0,0,1,0,41.294,3.485,3.485,0,0,1-3.432,2.921Z" transform="translate(-217.943 -208)" fill="#6c63ff"/>
      <path id="Path_52" data-name="Path 52" d="M585.724,289.377h-32.3a3.44,3.44,0,0,1-2.718-1.317,3.5,3.5,0,0,1-.654-3,82.9,82.9,0,0,0,0-38.5,3.5,3.5,0,0,1,.654-3,3.44,3.44,0,0,1,2.718-1.317h32.3a3.485,3.485,0,0,1,3.432,2.921,135.693,135.693,0,0,1,0,41.294,3.485,3.485,0,0,1-3.432,2.921Z" transform="translate(-217.943 -208)" fill="#ff6584"/>
      <path id="Path_53" data-name="Path 53" d="M405.88,527.466a10.743,10.743,0,0,1-7.842-14.486L353.7,417.788l22.491-6.321,36.547,95.674a10.8,10.8,0,0,1-6.861,20.324Z" transform="translate(-217.943 -208)" fill="#a0616a"/>
      <path id="Path_54" data-name="Path 54" d="M102.079,471.364h12.26l5.832-47.288H102.077Z" fill="#a0616a"/>
      <path id="Path_55" data-name="Path 55" d="M317.395,675.861h38.531v14.887H332.282a14.887,14.887,0,0,1-14.887-14.887h0Z" transform="translate(455.409 1158.593) rotate(179.997)" fill="#2f2e41"/>
      <path id="Path_56" data-name="Path 56" d="M38.354,458.148l11.269,4.827L73.605,421.8,56.972,414.68Z" fill="#a0616a"/>
      <path id="Path_57" data-name="Path 57" d="M250.774,668.878H289.3v14.887H265.661a14.887,14.887,0,0,1-14.887-14.887Z" transform="matrix(-0.919, -0.394, 0.394, -0.919, 34.043, 1196.336)" fill="#2f2e41"/>
      <circle id="Ellipse_5" data-name="Ellipse 5" cx="24.561" cy="24.561" r="24.561" transform="translate(107.829 116.008)" fill="#a0616a"/>
      <path id="Path_58" data-name="Path 58" d="M332.589,667.8l-13.5-2.571a4.473,4.473,0,0,1-3.635-4.879l8.949-87.259a3.5,3.5,0,0,0-6.7-1.735l-39.071,91.167a4.5,4.5,0,0,1-5.964,2.339L261.7,659.985a4.482,4.482,0,0,1-2.442-5.535l26.722-80.167a3.5,3.5,0,0,0,.155-.694l8.674-73.247a4.5,4.5,0,0,1,2.775-3.641l27.388-11.126a4.5,4.5,0,0,1,4.833.944l34.57,33.661a4.482,4.482,0,0,1,1.275,4.1l-27.8,139.978a4.5,4.5,0,0,1-5.256,3.544Z" transform="translate(-217.943 -208)" fill="#2f2e41"/>
      <path id="Path_59" data-name="Path 59" d="M317.2,504.381c-4.785-5.54-8.277-8.055-10.665-7.658-2.37.383-3.737,3.693-5.184,7.2-1.976,4.784-4.215,10.207-9.734,10.631a4.647,4.647,0,0,1-4.562-1.87c-4.342-6.457,6.072-27.824,7.023-29.744l-.488-101.061a4.489,4.489,0,0,1,2.353-3.985c28.617-15.432,67.257,11.406,74.712,16.944h0a4.488,4.488,0,0,1,1.811,3.849c-.9,16.926-5.387,102.32-5.387,121.369,0,5.273-1.819,8.624-5.406,9.958a10.782,10.782,0,0,1-3.774.619C346.955,530.631,329.028,518.072,317.2,504.381Z" transform="translate(-217.943 -208)" fill="#ccc"/>
      <path id="Path_60" data-name="Path 60" d="M357.139,455.309a4.45,4.45,0,0,1-2.023-3.566l-1.938-45.266a11.747,11.747,0,0,1,22.712-4.691L390.4,439.8a4.5,4.5,0,0,1-2.6,5.809l-26.581,10.144A4.455,4.455,0,0,1,357.139,455.309Z" transform="translate(-217.943 -208)" fill="#ccc"/>
      <path id="Path_61" data-name="Path 61" d="M289.592,526.037a10.743,10.743,0,0,1-1.726-16.382l-4.69-104.9,23.2,2.732-2.693,102.381a10.8,10.8,0,0,1-14.092,16.173Z" transform="translate(-217.943 -208)" fill="#a0616a"/>
      <path id="Path_62" data-name="Path 62" d="M273.481,432.685a4.451,4.451,0,0,1-.619-4.054l14.328-42.982a11.747,11.747,0,0,1,22.892,3.715v40.69a4.505,4.505,0,0,1-4.5,4.5h-28.45a4.453,4.453,0,0,1-3.651-1.869Z" transform="translate(-217.943 -208)" fill="#ccc"/>
      <path id="Path_63" data-name="Path 63" d="M334.472,365.089a4.853,4.853,0,0,1-6.351-.317c-5.264-4.92-9.706-10.8-11.955-17.618-2.576-7.808-1.918-16.953,3.015-23.53,4.171-5.56,10.772-8.7,17.274-11.157a28.271,28.271,0,0,1,7.96-2.067,10.937,10.937,0,0,1,7.754,2.178,6.868,6.868,0,0,1,2.275,7.4,25.847,25.847,0,0,1,11.8-6.105,14.267,14.267,0,0,1,8.44.35c3.771,1.551,6.22,5.339,7.349,9.257a16.724,16.724,0,0,1,.218,9.209,11.146,11.146,0,0,1-5.706,7.032c-3.45,1.625-7.544,1.012-11.152-.226s-7.028-3.063-10.759-3.853-8.039-.329-10.679,2.423c-1.859,1.938-2.591,4.664-3.256,7.266l-3.459,13.534a16.881,16.881,0,0,1-2.157,5.574,3.333,3.333,0,0,1-.616.652Z" transform="translate(-217.943 -208)" fill="#2f2e41"/>
      <path id="Path_64" data-name="Path 64" d="M434.081,560.377h-32.3a3.485,3.485,0,0,1-3.432-2.921,135.678,135.678,0,0,1,0-41.294,3.485,3.485,0,0,1,3.432-2.921h32.3a3.441,3.441,0,0,1,2.718,1.317,3.5,3.5,0,0,1,.654,3,82.9,82.9,0,0,0,0,38.5,3.5,3.5,0,0,1-.654,3A3.44,3.44,0,0,1,434.081,560.377Z" transform="translate(-217.943 -208)" fill="#6c63ff"/>
      <path id="Path_65" data-name="Path 65" d="M379.943,692h-161a1,1,0,0,1,0-2h161a1,1,0,0,1,0,2Z" transform="translate(-217.943 -208)" fill="#3f3d56"/>
    </g>
  </g>
</svg>
